PathFileType	4	(X/Y/Z)	C:\Users\86182\Documents\cortex\Trimmed_M3_L15.trc
DataRate	CameraRate	NumFrames	NumMarkers	Units	OrigDataRate	OrigDataStartFrame	OrigNumFrames
100.00	100.00	       158	2	mm	100.00	1	       901
Frame#	Time	gripper			box			
		X1	Y1	Z1	X2	Y2	Z2	

1	0.000	274.71014	148.70448	192.89786	277.05316	146.92973	57.44791	
2	0.010	274.71014	148.70448	192.89786	277.05316	146.92973	57.44791	
3	0.020	274.71216	148.70502	192.89941	277.05316	146.92973	57.44791	
4	0.030	274.71014	148.70448	192.89786	277.05316	146.92973	57.44791	
5	0.040	274.71014	148.70448	192.89786	277.05316	146.92973	57.44791	
6	0.050	274.71014	148.70448	192.89786	277.05316	146.92973	57.44791	
7	0.060	274.71014	148.70448	192.89786	277.05316	146.92973	57.44791	
8	0.070	274.71417	148.70555	192.90099	277.05316	146.92973	57.44791	
9	0.080	274.73193	148.71014	192.91502	277.05316	146.92973	57.44791	
10	0.090	274.72604	148.70862	192.91035	277.05316	146.92973	57.44791	
11	0.100	274.71014	148.70448	192.89786	277.05316	146.92973	57.44791	
12	0.110	274.71014	148.70448	192.89786	277.05316	146.92973	57.44791	
13	0.120	274.71014	148.70448	192.89786	277.05316	146.92973	57.44791	
14	0.130	274.71616	148.70605	192.90256	277.05316	146.92973	57.44791	
15	0.140	274.70694	148.70561	192.89868	277.05316	146.92973	57.44791	
16	0.150	274.71811	148.70656	192.90411	277.05316	146.92973	57.44791	
17	0.160	274.71014	148.70448	192.89786	277.05316	146.92973	57.44791	
18	0.170	274.71014	148.70448	192.89786	277.05316	146.92973	57.44791	
19	0.180	274.73193	148.71014	192.91502	277.05316	146.92973	57.44791	
20	0.190	274.84363	148.58934	192.94849	277.05316	146.92973	57.44791	
21	0.200	274.71014	148.70448	192.89786	277.05316	146.92973	57.44791	
22	0.210	274.71417	148.70555	192.90099	277.05316	146.92973	57.44791	
23	0.220	274.71014	148.70448	192.89786	277.05316	146.92973	57.44791	
24	0.230	274.71014	148.70448	192.89786	277.05316	146.92973	57.44791	
25	0.240	274.71216	148.70502	192.89941	277.04929	146.94078	57.46081	
26	0.250	274.71417	148.70555	192.90099	277.04831	146.94354	57.46404	
27	0.260	274.71014	148.70448	192.89786	277.05316	146.92973	57.44791	
28	0.270	274.72406	148.70811	192.90880	277.04929	146.94078	57.46081	
29	0.280	274.71014	148.70448	192.89786	277.05222	146.93246	57.45110	
30	0.290	274.71014	148.70448	192.89786	277.05316	146.92973	57.44791	
31	0.300	274.71014	148.70448	192.89786	277.04333	146.95758	57.48041	
32	0.310	274.71014	148.70448	192.89786	277.04831	146.94354	57.46404	
33	0.320	274.72009	148.70708	192.90569	277.04138	146.96323	57.48701	
34	0.330	274.71014	148.70448	192.89786	277.04831	146.94354	57.46404	
35	0.340	274.71014	148.70448	192.89786	277.05316	146.92973	57.44791	
36	0.350	274.70767	148.70265	192.89925	277.04434	146.95473	57.47709	
37	0.360	274.71014	148.70448	192.89786	277.05316	146.92973	57.44791	
38	0.370	274.69403	148.71016	192.90199	277.04633	146.94914	57.47057	
39	0.380	274.73392	148.71066	192.91656	277.04831	146.94354	57.46404	
40	0.390	274.72211	148.70760	192.90724	277.05124	146.93523	57.45434	
41	0.400	274.71014	148.70448	192.89786	277.05222	146.93246	57.45110	
42	0.410	274.72406	148.70811	192.90880	277.04535	146.95193	57.47384	
43	0.420	274.71616	148.70605	192.90256	277.05316	146.92973	57.44791	
44	0.430	274.71216	148.70502	192.89941	277.05316	146.92973	57.44791	
45	0.440	274.71811	148.70656	192.90411	277.05316	146.92973	57.44791	
46	0.450	274.71014	148.70448	192.89786	277.05316	146.92973	57.44791	
47	0.460	274.71014	148.70448	192.89786	277.05316	146.92973	57.44791	
48	0.470	274.73590	148.71118	192.91814	277.05316	146.92973	57.44791	
49	0.480	274.71014	148.70448	192.89786	277.05316	146.92973	57.44791	
50	0.490	274.71616	148.70605	192.90256	277.05316	146.92973	57.44791	
51	0.500	274.72604	148.70862	192.91035	277.05316	146.92973	57.44791	
52	0.510	274.72211	148.70760	192.90724	277.05316	146.92973	57.44791	
53	0.520	274.71216	148.70502	192.89941	277.05316	146.92973	57.44791	
54	0.530	274.73785	148.71169	192.91968	277.05316	146.92973	57.44791	
55	0.540	274.71014	148.70448	192.89786	277.05222	146.93246	57.45110	
56	0.550	274.71014	148.70448	192.89786	277.05316	146.92973	57.44791	
57	0.560	274.74765	148.71423	192.92741	277.05316	146.92973	57.44791	
58	0.570	274.71014	148.70448	192.89786	277.05316	146.92973	57.44791	
59	0.580	274.71014	148.70448	192.89786	277.05316	146.92973	57.44791	
60	0.590	274.84363	148.58934	192.94849	277.05316	146.92973	57.44791	
61	0.600	274.70370	148.70676	192.89951	277.05316	146.92973	57.44791	
62	0.610	274.71014	148.70448	192.89786	277.05316	146.92973	57.44791	
63	0.620	274.72211	148.70760	192.90724	277.05316	146.92973	57.44791	
64	0.630	274.71014	148.70448	192.89786	277.05316	146.92973	57.44791	
65	0.640	274.71014	148.70448	192.89786	277.05316	146.92973	57.44791	
66	0.650	274.72604	148.70862	192.91035	277.05316	146.92973	57.44791	
67	0.660	274.71014	148.70448	192.89786	277.05316	146.92973	57.44791	
68	0.670	274.72211	148.70760	192.90724	277.05316	146.92973	57.44791	
69	0.680	274.72604	148.70862	192.91035	277.05316	146.92973	57.44791	
70	0.690	274.71014	148.70448	192.89786	277.05316	146.92973	57.44791	
71	0.700	274.73193	148.71014	192.91502	277.05316	146.92973	57.44791	
72	0.710	274.71014	148.70448	192.89786	277.05316	146.92973	57.44791	
73	0.720	274.71216	148.70502	192.89941	277.05316	146.92973	57.44791	
74	0.730	274.71811	148.70656	192.90411	277.05316	146.92973	57.44791	
75	0.740	274.71616	148.70605	192.90256	277.05316	146.92973	57.44791	
76	0.750	274.71616	148.70605	192.90256	277.05316	146.92973	57.44791	
77	0.760	274.72009	148.70708	192.90569	277.04929	146.94078	57.46081	
78	0.770	274.71014	148.70448	192.89786	277.05316	146.92973	57.44791	
79	0.780	274.71014	148.70448	192.89786	277.05316	146.92973	57.44791	
80	0.790	274.72211	148.70760	192.90724	277.05316	146.92973	57.44791	
81	0.800	274.72406	148.70811	192.90880	277.05316	146.92973	57.44791	
82	0.810	274.70972	148.70833	192.90421	277.05316	146.92973	57.44791	
83	0.820	274.71616	148.70605	192.90256	277.05316	146.92973	57.44791	
84	0.830	274.71417	148.70555	192.90099	277.05316	146.92973	57.44791	
85	0.840	274.71014	148.70448	192.89786	277.05316	146.92973	57.44791	
86	0.850	274.71014	148.70448	192.89786	277.05316	146.92973	57.44791	
87	0.860	274.84116	148.58907	192.94693	277.05316	146.92973	57.44791	
88	0.870	274.71014	148.70448	192.89786	277.05316	146.92973	57.44791	
89	0.880	274.71216	148.70502	192.89941	277.04929	146.94078	57.46081	
90	0.890	274.72803	148.70915	192.91190	277.05316	146.92973	57.44791	
91	0.900	274.72009	148.70708	192.90569	277.05316	146.92973	57.44791	
92	0.910	274.71014	148.70448	192.89786	277.05316	146.92973	57.44791	
93	0.920	274.73392	148.71066	192.91656	277.05316	146.92973	57.44791	
94	0.930	274.72211	148.70760	192.90724	277.05316	146.92973	57.44791	
95	0.940	274.71616	148.70605	192.90256	277.05316	146.92973	57.44791	
96	0.950	274.72406	148.70811	192.90880	277.05316	146.92973	57.44791	
97	0.960	274.72211	148.70760	192.90724	277.05316	146.92973	57.44791	
98	0.970	274.71417	148.70555	192.90099	277.05316	146.92973	57.44791	
99	0.980	274.72009	148.70708	192.90569	277.05316	146.92973	57.44791	
100	0.990	274.72211	148.70760	192.90724	277.05316	146.92973	57.44791	
101	1.000	274.71014	148.70448	192.89786	277.05316	146.92973	57.44791	
102	1.010	274.71014	148.70448	192.89786	277.05316	146.92973	57.44791	
103	1.020	274.75354	148.71576	192.93204	277.05316	146.92973	57.44791	
104	1.030	274.71014	148.70448	192.89786	277.05316	146.92973	57.44791	
105	1.040	274.74573	148.71375	192.92586	277.05316	146.92973	57.44791	
106	1.050	274.73392	148.71066	192.91656	277.05316	146.92973	57.44791	
107	1.060	274.71118	148.70860	192.90422	277.05316	146.92973	57.44791	
108	1.070	274.74179	148.71271	192.92278	277.05136	146.92604	57.45267	
109	1.080	274.84116	148.58907	192.94693	277.05316	146.92973	57.44791	
110	1.090	274.61127	148.70660	192.94485	277.67834	146.76353	57.14249	
111	1.100	274.62274	148.73703	192.99533	277.62527	146.74722	57.19653	
112	1.110	274.57950	148.80315	193.07196	277.30246	146.92996	57.39883	
113	1.120	274.33267	148.92960	193.24635	277.06262	147.03429	57.54127	
114	1.130	274.21881	148.95857	193.39870	277.03024	147.04800	57.55629	
115	1.140	274.28107	148.98265	193.37617	276.83307	147.13150	57.64759	
116	1.150	274.42151	149.02316	193.43106	276.88312	147.11032	57.62443	
117	1.160	274.42709	149.00848	193.48112	277.09552	147.03992	57.53028	
118	1.170	274.28485	148.97054	193.53242	276.56274	147.10635	57.89607	
119	1.180	274.16504	148.88889	193.61668	276.51135	147.03098	58.02811	
120	1.190	274.16217	148.85001	193.66040	276.54413	147.04852	58.10499	
121	1.200	273.90787	148.86534	194.10034	276.56964	146.95326	58.19107	
122	1.210	274.05179	148.82028	194.16470	276.64389	146.97971	58.30957	
123	1.220	274.23358	148.67592	194.19957	276.64212	146.99751	58.37865	
124	1.230	274.33826	148.67764	194.50438	276.91513	146.92342	58.60965	
125	1.240	274.67126	148.63576	194.82736	277.00870	146.80948	58.79396	
126	1.250	274.88425	148.48428	194.91940	276.86737	146.88062	59.16764	
127	1.260	274.72772	148.56540	195.39587	277.71649	146.78601	59.16500	
128	1.270	273.96835	148.80896	196.00905	276.73331	146.98761	60.30019	
129	1.280	274.29953	148.83727	196.52550	276.80841	147.02864	60.66460	
130	1.290	274.58530	148.74191	196.63997	276.90167	147.08252	60.79583	
131	1.300	274.88260	148.60135	196.97728	276.67896	147.14285	61.20567	
132	1.310	274.45444	148.70923	197.43376	276.95673	147.03545	61.52819	
133	1.320	274.03412	148.95479	198.22839	276.59311	147.16217	62.25652	
134	1.330	274.36563	148.91602	198.33591	276.68225	147.22670	62.67613	
135	1.340	274.50342	148.91750	198.62305	276.73138	147.17825	62.99762	
136	1.350	274.36917	148.90495	199.16177	276.69131	147.29486	63.38274	
137	1.360	274.46973	148.88345	199.62521	276.73074	147.32048	63.66290	
138	1.370	274.19348	149.02580	200.16043	276.46652	147.25407	64.35596	
139	1.380	274.32962	148.97658	200.46622	276.76575	147.21925	64.91123	
140	1.390	274.27222	148.92583	201.04115	276.83575	147.21779	65.23126	
141	1.400	274.22754	148.97400	201.27650	276.66812	147.33742	65.70502	
142	1.410	274.32220	148.87732	201.83409	277.15521	147.30167	65.71432	
143	1.420	274.44348	149.00554	202.31050	276.43277	147.32790	66.45969	
144	1.430	274.58490	148.94246	202.71030	276.68384	147.22194	66.82652	
145	1.440	274.32449	148.96436	203.13611	276.81796	147.22557	67.42976	
146	1.450	274.72653	148.89600	203.36606	277.03049	147.27969	67.71618	
147	1.460	275.12091	148.67009	203.94914	277.34375	147.30632	67.92990	
148	1.470	274.66812	148.99969	204.44197	276.55151	147.36227	68.69632	
149	1.480	274.50217	148.87311	204.91534	276.57181	147.24419	68.93681	
150	1.490	274.61490	148.96729	205.11833	276.76379	147.30925	69.32785	
151	1.500	274.63797	148.94598	205.69272	276.99161	147.40187	69.84896	
152	1.510	274.36310	148.96573	206.02882	277.02615	147.31000	70.24332	
153	1.520	274.76129	148.98917	206.49478	276.97195	147.21872	70.76427	
154	1.530	275.05231	148.82338	207.00589	276.87897	147.28307	71.08900	
155	1.540	274.83539	148.92529	207.42491	277.07788	147.33609	71.40804	
156	1.550	274.69821	148.88481	207.80432	276.99326	147.29932	72.05980	
157	1.560	274.46869	148.97783	208.11940	277.13702	147.22357	72.45211	
158	1.570	275.16718	148.78351	208.68777	276.75497	147.34383	73.12368	
